<svg width="30" height="30" viewBox="0 0 30 30" fill="none" xmlns="http://www.w3.org/2000/svg">
<g id="svgexport-6 - 2022-08-21T193351.650 1" clip-path="url(#clip0_2671_2027)">
<g id="Group">
<g id="Group_2">
<g id="Group_3">
<path id="Vector" d="M19.2854 5.23828H8.80964C6.97154 5.23828 5.47607 6.73521 5.47607 8.57533V21.4251C5.47607 23.2652 6.97154 24.7621 8.80964 24.7621H19.2854C21.1235 24.7621 22.6189 23.2652 22.6189 21.4251V8.57533C22.6189 6.73521 21.1235 5.23828 19.2854 5.23828ZM21.6665 21.4251C21.6665 22.7402 20.5983 23.8097 19.2853 23.8097H8.80957C7.49658 23.8097 6.42836 22.7402 6.42836 21.4251V8.57533C6.42836 7.26018 7.49658 6.19071 8.80957 6.19071H19.2853C20.5983 6.19071 21.6665 7.26025 21.6665 8.57533V21.4251Z" fill="#3AC2CB"/>
</g>
</g>
<g id="Group_4">
<g id="Group_5">
<path id="Vector_2" d="M20.2302 5.62918L19.5332 1.79499C19.35 0.788225 18.4059 0 17.3836 0H10.7113C9.68915 0 8.74481 0.788225 8.56164 1.79499L7.86465 5.62918C7.83926 5.76821 7.87728 5.91085 7.96761 6.01932C8.05794 6.12779 8.19187 6.1905 8.33312 6.1905H19.7617C19.9029 6.1905 20.0368 6.12765 20.1273 6.01932C20.2177 5.91092 20.2556 5.76821 20.2302 5.62918ZM8.90371 5.23807L9.49858 1.96519C9.59861 1.41602 10.1538 0.952358 10.7112 0.952358H17.3835C17.9409 0.952358 18.4961 1.4165 18.5961 1.96519L19.1911 5.23807H8.90371Z" fill="#3AC2CB"/>
</g>
</g>
<g id="Group_6">
<g id="Group_7">
<path id="Vector_3" d="M20.1273 23.9807C20.037 23.8723 19.903 23.8096 19.7618 23.8096H8.33321C8.19202 23.8096 8.05809 23.8724 7.96762 23.9807C7.87715 24.0891 7.83927 24.2318 7.86466 24.3709L8.56172 28.2051C8.74497 29.2118 9.68923 30.0001 10.7113 30.0001H17.3836C18.406 30.0001 19.3501 29.2118 19.5333 28.2051L20.2302 24.3709C20.2556 24.2318 20.2177 24.0891 20.1273 23.9807ZM18.5963 28.0347C18.4963 28.5836 17.9411 29.0476 17.3837 29.0476H10.7114C10.154 29.0476 9.59876 28.5839 9.4988 28.0347L8.9038 24.7619H19.1912L18.5963 28.0347Z" fill="#3AC2CB"/>
</g>
</g>
<g id="Group_8">
<g id="Group_9">
<path id="Vector_4" d="M23.1658 10H22.1427C21.8797 10 21.6665 10.213 21.6665 10.4762V14.7619C21.6665 15.0251 21.8797 15.2381 22.1427 15.2381H23.1658C23.9145 15.2381 24.5236 14.629 24.5236 13.8803V11.3579C24.5236 10.6092 23.9145 10 23.1658 10ZM23.5713 13.8802C23.5713 14.1039 23.3895 14.2857 23.1658 14.2857H22.6189V10.9524H23.1658C23.3895 10.9524 23.5713 11.1341 23.5713 11.3578V13.8802Z" fill="#3AC2CB"/>
</g>
</g>
<g id="Group_10">
<g id="Group_11">
<path id="Vector_5" d="M9.14589 7.28254C8.95993 7.09658 8.65852 7.09658 8.47255 7.28254L7.28205 8.47304C7.09609 8.65901 7.09609 8.96041 7.28205 9.14638C7.37503 9.23936 7.49697 9.28589 7.61869 9.28589C7.74048 9.28589 7.86241 9.23936 7.95532 9.14638L9.14582 7.95588C9.33186 7.76991 9.33186 7.46851 9.14589 7.28254Z" fill="#3AC2CB"/>
</g>
</g>
<g id="Group_12">
<g id="Group_13">
<path id="Vector_6" d="M11.0505 7.28254C10.8646 7.09658 10.5632 7.09658 10.3772 7.28254L7.75813 9.90161C7.57216 10.0876 7.57216 10.389 7.75813 10.575C7.85111 10.6679 7.97304 10.7145 8.09476 10.7145C8.21655 10.7145 8.33848 10.6679 8.4314 10.575L11.0505 7.95588C11.2365 7.76991 11.2365 7.46851 11.0505 7.28254Z" fill="#3AC2CB"/>
</g>
</g>
</g>
</g>
<defs>
<clipPath id="clip0_2671_2027">
<rect width="30" height="30" fill="white"/>
</clipPath>
</defs>
</svg>
